<svg width="116" height="94" viewBox="0 0 116 94" fill="none" xmlns="http://www.w3.org/2000/svg">
<path d="M21.1518 94C19.6707 94 18.4301 93.4986 17.4299 92.496C16.4298 91.4933 15.928 90.2539 15.9245 88.7778V83.5555C11.5684 83.5555 7.86578 82.0324 4.81654 78.9861C1.7673 75.9398 0.242676 72.2407 0.242676 67.8889V41.7778C0.242676 38.9055 1.26722 36.4476 3.31631 34.404C5.3654 32.3604 7.8257 31.3368 10.6972 31.3333C13.5687 31.3298 16.0308 32.3534 18.0834 34.404C20.1359 36.4546 21.1587 38.9125 21.1518 41.7778V62.6667H94.3336V41.7778C94.3336 38.9055 95.3581 36.4476 97.4072 34.404C99.4563 32.3604 101.917 31.3368 104.788 31.3333C107.66 31.3298 110.122 32.3534 112.174 34.404C114.227 36.4546 115.25 38.9125 115.243 41.7778V67.8889C115.243 72.2407 113.718 75.9398 110.669 78.9861C107.62 82.0324 103.917 83.5555 99.5608 83.5555V88.7778C99.5608 90.2574 99.059 91.4985 98.0554 92.5012C97.0517 93.5039 95.8111 94.0035 94.3336 94C92.856 93.9965 91.6154 93.4952 90.6117 92.496C89.6081 91.4968 89.1063 90.2574 89.1063 88.7778V83.5555H26.379V88.7778C26.379 90.2574 25.8772 91.4985 24.8736 92.5012C23.8699 93.5039 22.6293 94.0035 21.1518 94ZM31.6063 52.2222V41.7778C31.6063 36.9907 30.1479 32.7033 27.2311 28.9154C24.3143 25.1276 20.5454 22.4521 15.9245 20.8889V15.6667C15.9245 11.3148 17.4491 7.61574 20.4984 4.56944C23.5476 1.52315 27.2502 0 31.6063 0H83.879C88.2351 0 91.9377 1.52315 94.987 4.56944C98.0362 7.61574 99.5608 11.3148 99.5608 15.6667V20.8889C94.8563 22.1074 91.0665 24.6541 88.1915 28.529C85.3165 32.4039 83.879 36.8201 83.879 41.7778V52.2222H31.6063Z" fill="#DE0101"/>
</svg>
