<svg width="115" height="94" viewBox="0 0 115 94" fill="none" xmlns="http://www.w3.org/2000/svg">
<path d="M20.869 94C19.3908 94 18.1525 93.4991 17.1543 92.4974C16.1561 91.4957 15.6552 90.2575 15.6517 88.7827V83.5655C11.304 83.5655 7.60848 82.0438 4.56509 79.0004C1.5217 75.957 0 72.2614 0 67.9137V41.8275C0 38.958 1.02258 36.5024 3.06774 34.4608C5.1129 32.4191 7.56848 31.3965 10.4345 31.393C13.3005 31.3895 15.7578 32.4121 17.8065 34.4608C19.8551 36.5094 20.8759 38.965 20.869 41.8275V62.6965H93.9104V41.8275C93.9104 38.958 94.933 36.5024 96.9782 34.4608C99.0233 32.4191 101.479 31.3965 104.345 31.393C107.211 31.3895 109.668 32.4121 111.717 34.4608C113.766 36.5094 114.786 38.965 114.779 41.8275V67.9137C114.779 72.2614 113.258 75.957 110.214 79.0004C107.171 82.0438 103.475 83.5655 99.1277 83.5655V88.7827C99.1277 90.2609 98.6268 91.5009 97.6251 92.5026C96.6234 93.5043 95.3852 94.0034 93.9104 94C92.4357 93.9965 91.1975 93.4956 90.1957 92.4974C89.194 91.4992 88.6932 90.2609 88.6932 88.7827V83.5655H26.0862V88.7827C26.0862 90.2609 25.5854 91.5009 24.5837 92.5026C23.5819 93.5043 22.3437 94.0034 20.869 94ZM31.3035 52.262V41.8275C31.3035 37.045 29.8479 32.7617 26.9366 28.9774C24.0254 25.1932 20.2638 22.5202 15.6517 20.9585V15.7413C15.6517 11.3936 17.1734 7.69802 20.2168 4.65463C23.2602 1.61124 26.9558 0.0895386 31.3035 0.0895386H83.4759C87.8236 0.0895386 91.5192 1.61124 94.5626 4.65463C97.606 7.69802 99.1277 11.3936 99.1277 15.7413V20.9585C94.4321 22.1759 90.6496 24.7202 87.7802 28.5914C84.9107 32.4626 83.4759 36.8746 83.4759 41.8275V52.262H31.3035Z" fill="#78E54D"/>
</svg>
