<svg width="116" height="94" viewBox="0 0 116 94" fill="none" xmlns="http://www.w3.org/2000/svg">
<path d="M21.1517 94C19.6706 94 18.43 93.4986 17.4299 92.496C16.4297 91.4933 15.9279 90.2539 15.9244 88.7778V83.5555C11.5684 83.5555 7.86572 82.0324 4.81648 78.9861C1.76724 75.9398 0.242615 72.2407 0.242615 67.8889V41.7778C0.242615 38.9055 1.26716 36.4476 3.31625 34.404C5.36534 32.3604 7.82564 31.3368 10.6972 31.3333C13.5687 31.3298 16.0307 32.3534 18.0833 34.404C20.1359 36.4546 21.1587 38.9125 21.1517 41.7778V62.6667H94.3335V41.7778C94.3335 38.9055 95.358 36.4476 97.4071 34.404C99.4562 32.3604 101.917 31.3368 104.788 31.3333C107.66 31.3298 110.122 32.3534 112.174 34.404C114.227 36.4546 115.25 38.9125 115.243 41.7778V67.8889C115.243 72.2407 113.718 75.9398 110.669 78.9861C107.619 82.0324 103.917 83.5555 99.5608 83.5555V88.7778C99.5608 90.2574 99.0589 91.4985 98.0553 92.5012C97.0517 93.5039 95.8111 94.0035 94.3335 94C92.8559 93.9965 91.6153 93.4952 90.6117 92.496C89.608 91.4968 89.1062 90.2574 89.1062 88.7778V83.5555H26.379V88.7778C26.379 90.2574 25.8772 91.4985 24.8735 92.5012C23.8699 93.5039 22.6293 94.0035 21.1517 94ZM31.6062 52.2222V41.7778C31.6062 36.9907 30.1478 32.7033 27.231 28.9154C24.3142 25.1276 20.5453 22.4521 15.9244 20.8889V15.6667C15.9244 11.3148 17.449 7.61574 20.4983 4.56944C23.5475 1.52315 27.2502 0 31.6062 0H83.879C88.235 0 91.9377 1.52315 94.9869 4.56944C98.0361 7.61574 99.5608 11.3148 99.5608 15.6667V20.8889C94.8562 22.1074 91.0665 24.6541 88.1915 28.529C85.3165 32.4039 83.879 36.8201 83.879 41.7778V52.2222H31.6062Z" fill="#00AAD9"/>
</svg>
