<svg width="218" height="53" viewBox="0 0 218 53" fill="none" xmlns="http://www.w3.org/2000/svg">
<path d="M45.1983 45.8V9.10339H52.2975V45.8H45.1983ZM50.4183 45.8V39.4838H69.1059V45.8H50.4183ZM73.4732 45.8V20.5874H80.3636V45.8H73.4732ZM76.9184 16.5158C75.8048 16.5158 74.8826 16.1504 74.1518 15.4196C73.421 14.654 73.0556 13.7144 73.0556 12.6008C73.0556 11.522 73.421 10.5998 74.1518 9.83419C74.8826 9.06859 75.8048 8.68579 76.9184 8.68579C78.0668 8.68579 78.989 9.06859 79.685 9.83419C80.4158 10.5998 80.7812 11.522 80.7812 12.6008C80.7812 13.7144 80.4158 14.654 79.685 15.4196C78.989 16.1504 78.0668 16.5158 76.9184 16.5158ZM100.411 46.322C98.6012 46.322 96.9657 45.9392 95.504 45.1736C94.0425 44.408 92.8767 43.364 92.0066 42.0416C91.1366 40.7192 90.6668 39.2402 90.5973 37.6046V28.6262C90.6668 26.9906 91.1366 25.529 92.0066 24.2414C92.9115 22.919 94.0947 21.8924 95.5562 21.1616C97.0178 20.4308 98.636 20.0654 100.411 20.0654C102.742 20.0654 104.83 20.6396 106.675 21.788C108.519 22.9364 109.963 24.5024 111.007 26.486C112.086 28.4696 112.626 30.7142 112.626 33.2198C112.626 35.6906 112.086 37.9178 111.007 39.9014C109.963 41.885 108.519 43.451 106.675 44.5994C104.83 45.7478 102.742 46.322 100.411 46.322ZM86.4212 45.8V8.05939H93.2595V26.7992L92.1111 32.8544L93.2072 39.014V45.8H86.4212ZM99.2625 40.0058C100.515 40.0058 101.611 39.7274 102.551 39.1706C103.525 38.579 104.274 37.7786 104.796 36.7694C105.352 35.7254 105.631 34.5248 105.631 33.1676C105.631 31.8452 105.352 30.6794 104.796 29.6702C104.274 28.6262 103.525 27.8258 102.551 27.269C101.577 26.6774 100.463 26.3816 99.2102 26.3816C97.9574 26.3816 96.8439 26.6774 95.8694 27.269C94.9298 27.8258 94.1817 28.6262 93.6248 29.6702C93.1028 30.6794 92.8418 31.8452 92.8418 33.1676C92.8418 34.5248 93.1028 35.7254 93.6248 36.7694C94.1817 37.7786 94.9472 38.579 95.9216 39.1706C96.896 39.7274 98.0096 40.0058 99.2625 40.0058ZM117.109 45.8V20.5874H123.947V45.8H117.109ZM123.947 31.8626L121.285 30.0878C121.598 26.9906 122.503 24.5546 124 22.7798C125.496 20.9702 127.654 20.0654 130.472 20.0654C131.69 20.0654 132.787 20.2742 133.761 20.6918C134.735 21.0746 135.623 21.7184 136.423 22.6232L132.143 27.53C131.76 27.1124 131.29 26.7992 130.733 26.5904C130.211 26.3816 129.602 26.2772 128.906 26.2772C127.445 26.2772 126.244 26.747 125.305 27.6866C124.4 28.5914 123.947 29.9834 123.947 31.8626ZM148.656 46.322C146.359 46.322 144.288 45.7478 142.444 44.5994C140.6 43.451 139.155 41.885 138.111 39.9014C137.067 37.9178 136.545 35.6906 136.545 33.2198C136.545 30.7142 137.067 28.4696 138.111 26.486C139.155 24.5024 140.6 22.9364 142.444 21.788C144.288 20.6396 146.359 20.0654 148.656 20.0654C150.465 20.0654 152.084 20.4308 153.51 21.1616C154.937 21.8924 156.068 22.919 156.903 24.2414C157.773 25.529 158.243 26.9906 158.313 28.6262V37.709C158.243 39.3794 157.773 40.8584 156.903 42.146C156.068 43.4336 154.937 44.4602 153.51 45.2258C152.084 45.9566 150.465 46.322 148.656 46.322ZM149.909 40.0058C151.823 40.0058 153.371 39.3794 154.554 38.1266C155.738 36.839 156.329 35.186 156.329 33.1676C156.329 31.8452 156.051 30.6794 155.494 29.6702C154.972 28.6262 154.224 27.8258 153.249 27.269C152.31 26.6774 151.196 26.3816 149.909 26.3816C148.656 26.3816 147.542 26.6774 146.568 27.269C145.628 27.8258 144.88 28.6262 144.323 29.6702C143.801 30.6794 143.54 31.8452 143.54 33.1676C143.54 34.5248 143.801 35.7254 144.323 36.7694C144.88 37.7786 145.628 38.579 146.568 39.1706C147.542 39.7274 148.656 40.0058 149.909 40.0058ZM155.964 45.8V39.014L157.06 32.8544L155.964 26.7992V20.5874H162.75V45.8H155.964ZM168.799 45.8V20.5874H175.638V45.8H168.799ZM175.638 31.8626L172.975 30.0878C173.289 26.9906 174.193 24.5546 175.69 22.7798C177.186 20.9702 179.344 20.0654 182.163 20.0654C183.381 20.0654 184.477 20.2742 185.451 20.6918C186.426 21.0746 187.313 21.7184 188.113 22.6232L183.833 27.53C183.45 27.1124 182.98 26.7992 182.424 26.5904C181.902 26.3816 181.293 26.2772 180.597 26.2772C179.135 26.2772 177.934 26.747 176.995 27.6866C176.09 28.5914 175.638 29.9834 175.638 31.8626ZM201.651 46.322C199.111 46.322 196.814 45.7478 194.761 44.5994C192.742 43.4162 191.124 41.8328 189.906 39.8492C188.723 37.8308 188.131 35.5862 188.131 33.1154C188.131 30.6446 188.723 28.4348 189.906 26.486C191.089 24.5024 192.708 22.9364 194.761 21.788C196.814 20.6048 199.093 20.0132 201.599 20.0132C204.174 20.0132 206.471 20.6048 208.489 21.788C210.543 22.9364 212.161 24.5024 213.344 26.486C214.527 28.4348 215.119 30.6446 215.119 33.1154C215.119 35.5862 214.527 37.8308 213.344 39.8492C212.161 41.8328 210.543 43.4162 208.489 44.5994C206.471 45.7478 204.192 46.322 201.651 46.322ZM201.599 39.9536C202.887 39.9536 204.018 39.6752 204.992 39.1184C206.001 38.5268 206.767 37.7264 207.289 36.7172C207.846 35.6732 208.124 34.49 208.124 33.1676C208.124 31.8452 207.846 30.6794 207.289 29.6702C206.732 28.661 205.966 27.878 204.992 27.3212C204.018 26.7296 202.887 26.4338 201.599 26.4338C200.346 26.4338 199.233 26.7296 198.258 27.3212C197.284 27.878 196.518 28.661 195.961 29.6702C195.405 30.6794 195.126 31.8452 195.126 33.1676C195.126 34.49 195.405 35.6732 195.961 36.7172C196.518 37.7264 197.284 38.5268 198.258 39.1184C199.233 39.6752 200.346 39.9536 201.599 39.9536Z" fill="white"/>
<path d="M2 20.5925C2 15.3642 2 12.7483 3.62505 11.1251C5.24825 9.5 7.86423 9.5 13.0925 9.5H20.4875C25.7158 9.5 28.3317 9.5 29.955 11.1251C31.58 12.7483 31.58 15.3642 31.58 20.5925V35.3825C31.58 40.6108 31.58 43.2267 29.955 44.8499C28.3317 46.475 25.7158 46.475 20.4875 46.475H13.0925C7.86423 46.475 5.24825 46.475 3.62505 44.8499C2 43.2267 2 40.6108 2 35.3825V20.5925Z" stroke="white" stroke-width="2.77312"/>
<path d="M31.3914 35.3825H9.20643C7.48709 35.3825 6.62742 35.3825 5.9212 35.5711C4.98076 35.8233 4.12328 36.3186 3.43496 37.0072C2.74664 37.6959 2.25173 38.5536 2 39.4941" stroke="white" stroke-width="2.77312"/>
<path d="M9.39502 18.7437H24.185M9.39502 25.2144H18.6388M30.6556 40.9287H9.39502" stroke="white" stroke-width="2.77312" stroke-linecap="round"/>
<path d="M165.188 1.98867C163.756 1.33721 162.185 0.999139 160.594 1C158.947 1 157.387 1.35661 156 1.98867V14.2856C157.431 13.6341 159.002 13.296 160.594 13.2969C162.784 13.2969 164.817 13.924 166.5 15C168.24 13.8873 170.299 13.2936 172.406 13.2969C174.053 13.2969 175.613 13.6535 177 14.2856V1.98867C175.569 1.33721 173.998 0.999139 172.406 1C170.759 1 169.2 1.35661 167.812 1.98867V10.8375C167.812 11.1636 167.674 11.4764 167.428 11.707C167.182 11.9376 166.848 12.0672 166.5 12.0672C166.152 12.0672 165.818 11.9376 165.572 11.707C165.326 11.4764 165.188 11.1636 165.188 10.8375V1.98867Z" fill="white"/>
</svg>
