<svg width="184" height="147" viewBox="0 0 184 147" fill="none" xmlns="http://www.w3.org/2000/svg">
<path d="M27.4703 38.0006V18.3136C27.4703 8.2411 35.7115 0 45.7839 0H137.352C147.424 0 155.665 8.2411 155.665 18.3136V38.0922C145.043 41.8465 137.352 51.919 137.352 63.8228V82.411H45.7839V63.7312C45.7839 51.919 38.0922 41.7549 27.4703 38.0006ZM164.822 45.7839C154.75 45.7839 146.509 54.025 146.509 64.0975V91.5678H36.6271V64.0975C36.6271 59.2404 34.6977 54.5823 31.2632 51.1478C27.8288 47.7134 23.1706 45.7839 18.3136 45.7839C13.4565 45.7839 8.79838 47.7134 5.36392 51.1478C1.92946 54.5823 0 59.2404 0 64.0975V109.881C0 119.954 8.2411 128.195 18.3136 128.195V146.509H36.6271V128.195H146.509V146.509H164.822V128.195C174.895 128.195 183.136 119.954 183.136 109.881V64.0975C183.136 54.025 174.895 45.7839 164.822 45.7839Z" fill="#BBBBBB"/>
</svg>
